<mxfile host="app.diagrams.net" agent="Mozilla/5.0 (Macintosh; Intel Mac OS X 10_15_7) AppleWebKit/537.36 (KHTML, like Gecko) Chrome/139.0.0.0 Safari/537.36" version="28.1.2">
  <diagram name="Page-1" id="NwtMYFho1J40AX6gDEam">
    <mxGraphModel dx="3064" dy="784" grid="1" gridSize="10" guides="1" tooltips="1" connect="1" arrows="1" fold="1" page="1" pageScale="1" pageWidth="827" pageHeight="1169" math="0" shadow="0">
      <root>
        <mxCell id="0" />
        <mxCell id="1" parent="0" />
        <mxCell id="m8yyXpN5D5giGVDlu26I-13" style="edgeStyle=orthogonalEdgeStyle;rounded=0;orthogonalLoop=1;jettySize=auto;html=1;exitX=0.5;exitY=0.5;exitDx=0;exitDy=0;exitPerimeter=0;entryX=-0.008;entryY=0.338;entryDx=0;entryDy=0;entryPerimeter=0;" edge="1" parent="1" source="m8yyXpN5D5giGVDlu26I-1" target="m8yyXpN5D5giGVDlu26I-12">
          <mxGeometry relative="1" as="geometry">
            <mxPoint x="-780" y="190" as="targetPoint" />
            <Array as="points">
              <mxPoint x="-842" y="200" />
              <mxPoint x="-760" y="200" />
              <mxPoint x="-760" y="271" />
            </Array>
          </mxGeometry>
        </mxCell>
        <mxCell id="m8yyXpN5D5giGVDlu26I-17" value="Github&lt;br&gt;actions" style="edgeLabel;html=1;align=center;verticalAlign=middle;resizable=0;points=[];" vertex="1" connectable="0" parent="m8yyXpN5D5giGVDlu26I-13">
          <mxGeometry x="-0.1329" y="1" relative="1" as="geometry">
            <mxPoint x="-1" y="1" as="offset" />
          </mxGeometry>
        </mxCell>
        <mxCell id="m8yyXpN5D5giGVDlu26I-1" value="Developer" style="shape=umlActor;verticalLabelPosition=bottom;verticalAlign=top;html=1;outlineConnect=0;" vertex="1" parent="1">
          <mxGeometry x="-852" y="177" width="20" height="40" as="geometry" />
        </mxCell>
        <mxCell id="m8yyXpN5D5giGVDlu26I-12" value="" style="rounded=1;whiteSpace=wrap;html=1;" vertex="1" parent="1">
          <mxGeometry x="-708" y="240" width="520" height="93" as="geometry" />
        </mxCell>
        <mxCell id="m8yyXpN5D5giGVDlu26I-8" value="Azure VM&lt;br&gt;(created by terraform)" style="rounded=0;whiteSpace=wrap;html=1;" vertex="1" parent="1">
          <mxGeometry x="-360" y="260" width="120" height="60" as="geometry" />
        </mxCell>
        <mxCell id="m8yyXpN5D5giGVDlu26I-9" value="Azure NSG (Firewall)&lt;br&gt;Inbound Ports: 80,443" style="rounded=0;whiteSpace=wrap;html=1;" vertex="1" parent="1">
          <mxGeometry x="-510" y="260" width="120" height="60" as="geometry" />
        </mxCell>
        <mxCell id="m8yyXpN5D5giGVDlu26I-23" style="edgeStyle=orthogonalEdgeStyle;rounded=0;orthogonalLoop=1;jettySize=auto;html=1;exitX=1;exitY=0.5;exitDx=0;exitDy=0;entryX=0;entryY=0.5;entryDx=0;entryDy=0;" edge="1" parent="1" source="m8yyXpN5D5giGVDlu26I-10" target="m8yyXpN5D5giGVDlu26I-9">
          <mxGeometry relative="1" as="geometry" />
        </mxCell>
        <mxCell id="m8yyXpN5D5giGVDlu26I-10" value="Azure Public IP" style="rounded=0;whiteSpace=wrap;html=1;" vertex="1" parent="1">
          <mxGeometry x="-660" y="260" width="120" height="60" as="geometry" />
        </mxCell>
        <mxCell id="m8yyXpN5D5giGVDlu26I-16" value="Terraform" style="text;html=1;align=center;verticalAlign=middle;resizable=0;points=[];autosize=1;strokeColor=none;fillColor=none;" vertex="1" parent="1">
          <mxGeometry x="-490" y="212" width="70" height="30" as="geometry" />
        </mxCell>
        <mxCell id="m8yyXpN5D5giGVDlu26I-24" style="edgeStyle=orthogonalEdgeStyle;rounded=0;orthogonalLoop=1;jettySize=auto;html=1;entryX=0;entryY=0.5;entryDx=0;entryDy=0;exitX=1;exitY=0.5;exitDx=0;exitDy=0;" edge="1" parent="1" source="m8yyXpN5D5giGVDlu26I-9" target="m8yyXpN5D5giGVDlu26I-8">
          <mxGeometry relative="1" as="geometry" />
        </mxCell>
        <mxCell id="m8yyXpN5D5giGVDlu26I-25" value="Ansible" style="text;html=1;align=center;verticalAlign=middle;resizable=0;points=[];autosize=1;strokeColor=none;fillColor=none;" vertex="1" parent="1">
          <mxGeometry x="70" y="127" width="60" height="30" as="geometry" />
        </mxCell>
        <mxCell id="m8yyXpN5D5giGVDlu26I-26" value="" style="rounded=0;whiteSpace=wrap;html=1;" vertex="1" parent="1">
          <mxGeometry x="-149" y="114" width="819" height="250" as="geometry" />
        </mxCell>
        <mxCell id="m8yyXpN5D5giGVDlu26I-20" value="Docker Engine &amp;amp; Docker-compose&lt;br&gt;(application)" style="rounded=0;whiteSpace=wrap;html=1;" vertex="1" parent="1">
          <mxGeometry x="-109.5" y="136" width="380" height="90" as="geometry" />
        </mxCell>
        <mxCell id="m8yyXpN5D5giGVDlu26I-21" value="NGINX Reverse Proxy&lt;br&gt;- Listem 80/443" style="rounded=0;whiteSpace=wrap;html=1;" vertex="1" parent="1">
          <mxGeometry x="-109.5" y="251" width="380" height="90" as="geometry" />
        </mxCell>
        <mxCell id="m8yyXpN5D5giGVDlu26I-29" value="Certificate for signing&lt;br&gt;(Let&#39;s encrypt)" style="rounded=0;whiteSpace=wrap;html=1;" vertex="1" parent="1">
          <mxGeometry x="340" y="251" width="290" height="89" as="geometry" />
        </mxCell>
        <mxCell id="m8yyXpN5D5giGVDlu26I-33" value="" style="rounded=1;whiteSpace=wrap;html=1;" vertex="1" parent="1">
          <mxGeometry x="-680" y="57" width="480" height="83" as="geometry" />
        </mxCell>
        <mxCell id="m8yyXpN5D5giGVDlu26I-30" value="Push the image to dockerhub" style="rounded=0;whiteSpace=wrap;html=1;" vertex="1" parent="1">
          <mxGeometry x="-400" y="68.5" width="120" height="60" as="geometry" />
        </mxCell>
        <mxCell id="m8yyXpN5D5giGVDlu26I-31" value="Dockerfile - Tweet app" style="rounded=0;whiteSpace=wrap;html=1;" vertex="1" parent="1">
          <mxGeometry x="-600" y="67" width="120" height="60" as="geometry" />
        </mxCell>
        <mxCell id="m8yyXpN5D5giGVDlu26I-40" value="" style="endArrow=classic;html=1;rounded=0;entryX=0;entryY=0.5;entryDx=0;entryDy=0;" edge="1" parent="1" target="m8yyXpN5D5giGVDlu26I-33">
          <mxGeometry width="50" height="50" relative="1" as="geometry">
            <mxPoint x="-760" y="200" as="sourcePoint" />
            <mxPoint x="-750" y="128.5" as="targetPoint" />
            <Array as="points">
              <mxPoint x="-760" y="200" />
              <mxPoint x="-760" y="99" />
            </Array>
          </mxGeometry>
        </mxCell>
        <mxCell id="m8yyXpN5D5giGVDlu26I-41" value="" style="endArrow=classic;html=1;rounded=0;entryX=0;entryY=0.5;entryDx=0;entryDy=0;exitX=1;exitY=0.5;exitDx=0;exitDy=0;" edge="1" parent="1" source="m8yyXpN5D5giGVDlu26I-30" target="m8yyXpN5D5giGVDlu26I-20">
          <mxGeometry width="50" height="50" relative="1" as="geometry">
            <mxPoint x="-451" y="201" as="sourcePoint" />
            <mxPoint x="-401" y="151" as="targetPoint" />
            <Array as="points">
              <mxPoint x="-180" y="99" />
              <mxPoint x="-180" y="180" />
            </Array>
          </mxGeometry>
        </mxCell>
        <mxCell id="m8yyXpN5D5giGVDlu26I-43" value="" style="endArrow=classic;html=1;rounded=0;exitX=1;exitY=0.5;exitDx=0;exitDy=0;" edge="1" parent="1" source="m8yyXpN5D5giGVDlu26I-8" target="m8yyXpN5D5giGVDlu26I-21">
          <mxGeometry width="50" height="50" relative="1" as="geometry">
            <mxPoint x="-510" y="170" as="sourcePoint" />
            <mxPoint x="-190" y="380" as="targetPoint" />
            <Array as="points" />
          </mxGeometry>
        </mxCell>
        <mxCell id="m8yyXpN5D5giGVDlu26I-44" value="" style="endArrow=classic;html=1;rounded=0;entryX=0;entryY=0.5;entryDx=0;entryDy=0;" edge="1" parent="1" source="m8yyXpN5D5giGVDlu26I-21" target="m8yyXpN5D5giGVDlu26I-29">
          <mxGeometry width="50" height="50" relative="1" as="geometry">
            <mxPoint x="40" y="210" as="sourcePoint" />
            <mxPoint x="90" y="160" as="targetPoint" />
            <Array as="points" />
          </mxGeometry>
        </mxCell>
        <mxCell id="m8yyXpN5D5giGVDlu26I-45" value="User" style="shape=umlActor;verticalLabelPosition=bottom;verticalAlign=top;html=1;outlineConnect=0;" vertex="1" parent="1">
          <mxGeometry x="770" y="40" width="30" height="60" as="geometry" />
        </mxCell>
        <mxCell id="m8yyXpN5D5giGVDlu26I-46" value="" style="endArrow=classic;html=1;rounded=0;" edge="1" parent="1" source="m8yyXpN5D5giGVDlu26I-52" target="m8yyXpN5D5giGVDlu26I-47">
          <mxGeometry width="50" height="50" relative="1" as="geometry">
            <mxPoint x="500" y="210" as="sourcePoint" />
            <mxPoint x="790" y="290" as="targetPoint" />
          </mxGeometry>
        </mxCell>
        <mxCell id="m8yyXpN5D5giGVDlu26I-47" value="Https://" style="rounded=0;whiteSpace=wrap;html=1;" vertex="1" parent="1">
          <mxGeometry x="730" y="280" width="120" height="34" as="geometry" />
        </mxCell>
        <mxCell id="m8yyXpN5D5giGVDlu26I-48" value="" style="endArrow=classic;html=1;rounded=0;entryX=0;entryY=0.5;entryDx=0;entryDy=0;exitX=1;exitY=0.5;exitDx=0;exitDy=0;" edge="1" parent="1" source="m8yyXpN5D5giGVDlu26I-29" target="m8yyXpN5D5giGVDlu26I-47">
          <mxGeometry width="50" height="50" relative="1" as="geometry">
            <mxPoint x="500" y="210" as="sourcePoint" />
            <mxPoint x="550" y="160" as="targetPoint" />
          </mxGeometry>
        </mxCell>
        <mxCell id="m8yyXpN5D5giGVDlu26I-53" value="" style="endArrow=classic;html=1;rounded=0;" edge="1" parent="1" source="m8yyXpN5D5giGVDlu26I-45" target="m8yyXpN5D5giGVDlu26I-52">
          <mxGeometry width="50" height="50" relative="1" as="geometry">
            <mxPoint x="786" y="100" as="sourcePoint" />
            <mxPoint x="790" y="319" as="targetPoint" />
          </mxGeometry>
        </mxCell>
        <mxCell id="m8yyXpN5D5giGVDlu26I-52" value="Access the application" style="text;html=1;align=center;verticalAlign=middle;resizable=0;points=[];autosize=1;strokeColor=none;fillColor=none;" vertex="1" parent="1">
          <mxGeometry x="720" y="200" width="140" height="30" as="geometry" />
        </mxCell>
      </root>
    </mxGraphModel>
  </diagram>
</mxfile>
